<svg xmlns="http://www.w3.org/2000/svg" version="1.1" xmlns:xlink="http://www.w3.org/1999/xlink" xmlns:svgjs="http://svgjs.dev/svgjs" width="1000" height="925" viewBox="0 0 1000 925"><g transform="matrix(1,0,0,1,0.5629812935145537,0.3751854750255461)"><svg viewBox="0 0 267 247" data-background-color="#282634" preserveAspectRatio="xMidYMid meet" height="925" width="1000" xmlns="http://www.w3.org/2000/svg" xmlns:xlink="http://www.w3.org/1999/xlink"><g id="tight-bounds" transform="matrix(1,0,0,1,-0.1503160053683814,-0.09997365579206985)"><svg viewBox="0 0 267.30041312877734 247.2" height="247.2" width="267.30041312877734"><g><svg viewBox="0 0 267.30041312877734 247.2" height="247.2" width="267.30041312877734"><g><svg viewBox="0 0 267.30041312877734 247.2" height="247.2" width="267.30041312877734"><g id="textblocktransform"><svg viewBox="0 0 267.30041312877734 247.2" height="247.2" width="267.30041312877734" id="textblock"><g><svg viewBox="0 0 267.30041312877734 247.2" height="247.2" width="267.30041312877734"><path d="M266.675 53.02C265.418 27.36 261.837 20.227 261.837 20.227 250.841-6.202 237.119-0.506 224.791 3.292 203.026 3.446 181.349 9.091 159.634 12.119 114.056 12.581 68.088 4.986 22.736 23.717 18.476 29.464-4.42 24.846 0.758 56.304 2.115 69.39 7.066 83.913 6.915 95.922 7.594 98.026 8.536 93.202 8.938 96.23 10.346 104.39 12.646 100.541 14.53 105.365 11.904 118.246 13.789 128.971 15.586 140.21 12.419 143.135 8.36 141.749 6.538 151.449 6.35 158.479 5.332 157.145 4.213 156.837 3.397 156.632 1.75 157.402 2.027 159.608 2.969 167.152-1.077 171.514 1.461 178.904-0.285 186.91 2.668 193.838 2.266 202.511 2.215 204.255 2.492 205.744 2.932 206.154 4.88 208.361 2.04 212.672 2.341 217.342 22.322 249.262 43.999 227.195 64.469 241.872 69.785 231.608 65.789 245.516 67.912 243.36 69.571 240.846 70.778 251.263 72.65 245.362 72.939 243.668 72.499 239.665 73.53 240.435 74.07 240.846 74.547 240.743 74.623 238.382 74.736 234.841 73.743 237.048 73.479 235.201 76.332 225.861 75.628 248.081 78.305 247.158 78.179 244.438 77.4 240.538 78.996 241.051 80.579 237.151 80.63 233.918 82.037 242.693 82.087 244.592 82.339 245.926 82.741 246.85 87.139 237.305 91.512 250.237 96.124 245.926 98.951 241.205 101.666 248.492 104.531 246.696 105.536 245.259 106.554 242.693 107.522 247.004 119.372 247.928 132.001 244.079 143.235 247.158 173.256 241.41 205.338 249.518 236.993 241.923 244.457 238.998 252.211 234.841 259.487 231.506 259.487 231.506 265.38 222.371 265.38 181.316S266.637 145.393 266.825 112.703C267.014 80.013 267.894 78.679 266.637 53.02Z" opacity="1" fill="#ff4057" data-fill-palette-color="tertiary"></path><g transform="matrix(1,0,0,1,55.76832,26.230666666666668)"><svg width="155.76377312877733" viewBox="1.4900000095367432 -35.0099983215332 28 35.0099983215332" height="194.73866666666666" data-palette-color="#282634"><path d="M18.99-10.96L18.99 0 12.01 0 12.01-10.96Q9.69-11.55 7.75-12.84 5.81-14.14 4.42-15.93 3.03-17.72 2.26-19.91 1.49-22.09 1.49-24.51L1.49-24.51 1.49-35.01 8.5-35.01 8.5-24.51Q8.5-23.07 9.05-21.79 9.59-20.51 10.55-19.56 11.5-18.6 12.78-18.05 14.06-17.5 15.5-17.5L15.5-17.5Q16.94-17.5 18.23-18.05 19.51-18.6 20.46-19.56 21.41-20.51 21.96-21.79 22.51-23.07 22.51-24.51L22.51-24.51 22.51-35.01 29.49-35.01 29.49-24.51Q29.49-22.09 28.72-19.91 27.95-17.72 26.56-15.93 25.17-14.14 23.24-12.84 21.31-11.55 18.99-10.96L18.99-10.96Z" opacity="1" transform="matrix(1,0,0,1,0,0)" fill="#282634" class="undefined-text-0" data-fill-palette-color="quaternary" id="text-0"></path></svg></g></svg></g></svg></g></svg></g><g></g></svg></g><defs></defs></svg><rect width="267.30041312877734" height="247.2" fill="none" stroke="none" visibility="hidden"></rect></g></svg></g></svg>